HIERARCHY
ROOT Hips
{
	OFFSET 0.000000 0.000000 0.000000 
	CHANNELS 6 Xposition Yposition Zposition Yrotation Zrotation Xrotation 
	JOINT Lumbar
	{
		OFFSET 0.000000 0.000000 0.000000 
		CHANNELS 3 Zrotation Xrotation Yrotation
		JOINT Neck
		{
			OFFSET 0.000000 0.445665 0.000000 
			CHANNELS 3 Zrotation Xrotation Yrotation
			End Site
			{
				OFFSET 0.000000 0.227535 0.000000 
			}
		}
		JOINT RightShoulder
		{
			OFFSET 0.019635 0.377685 0.194865 
			CHANNELS 3 Zrotation Xrotation Yrotation
			JOINT RightElbow
			{
				OFFSET 0.000000 -0.243375 0.000000 
				CHANNELS 2 Zrotation Yrotation
				JOINT RightWrist
				{
					OFFSET 0.000000 -0.264825 0.000000 
					CHANNELS 2 Zrotation Xrotation
					End Site
					{
						OFFSET 0.006600 -0.176220 0.000990 
					}
				}
			}
		}
		JOINT LeftShoulder
		{
			OFFSET 0.019635 0.377685 -0.194865 
			CHANNELS 3 Zrotation Xrotation Yrotation
			JOINT LeftElbow
			{
				OFFSET 0.000000 -0.243375 0.000000 
				CHANNELS 2 Zrotation Yrotation
				JOINT LeftWrist
				{
					OFFSET 0.000000 -0.264825 0.000000 
					CHANNELS 2 Zrotation Xrotation
					End Site
					{
						OFFSET 0.006600 -0.176220 -0.000990 
					}
				}
			}
		}
	}
	JOINT RightHip
	{
		OFFSET 0.052140 -0.069960 0.075570 
		CHANNELS 3 Zrotation Xrotation Yrotation
		JOINT RightKnee
		{
			OFFSET 0.000000 -0.402270 0.000000 
			CHANNELS 1 Zrotation
			JOINT RightAnkle
			{
				OFFSET 0.000000 -0.404085 0.000000 
				CHANNELS 3 Zrotation Xrotation Yrotation
				End Site
				{
					OFFSET 0.204105 -0.089430 0.008415 
				}
			}
		}
	}
	JOINT LeftHip
	{
		OFFSET 0.052140 -0.069960 -0.075570 
		CHANNELS 3 Zrotation Xrotation Yrotation
		JOINT LeftKnee
		{
			OFFSET 0.000000 -0.402270 0.000000 
			CHANNELS 1 Zrotation
			JOINT LeftAnkle
			{
				OFFSET 0.000000 -0.404085 0.000000 
				CHANNELS 3 Zrotation Xrotation Yrotation
				End Site
				{
					OFFSET 0.204105 -0.089430 -0.008415 
				}
			}
		}
	}
}
MOTION
Frames: 30
Frame Time: 0.02
-0.00015 -0.00011 0.00064 -152.61077 -42.02977 -0.17014 50.789 1.4061 -5.80703 -2.49244 -0.21616 -0.44425 -27.684 -5.77705 10.69413 119.50007 96.3375 30.65385 -1.84196 -28.38456 6.32596 -18.44102 118.19216 -102.91676 16.77109 -0.48196 46.26204 -0.93185 0.14305 -19.89881 -6.77609 -3.92018 -2.77121 50.08462 2.79736 5.17242 -25.25792 -6.92828 2.35236 1.8106
0.00013 -8e-05 0.00044 -152.62933 -42.00355 -0.17588 50.78737 1.39853 -5.81389 -2.51179 -0.22591 -0.44454 -27.55714 -6.47281 11.01466 119.5256 95.30706 29.49745 -1.94642 -28.35911 6.30038 -18.45931 118.18973 -102.91499 16.77135 -0.47648 46.25398 -0.97797 -0.15619 -19.89759 -6.76807 -3.90084 -2.75146 50.07799 2.78034 5.06962 -25.25664 -6.92907 2.35556 1.81712
0.00041 -5e-05 0.00024 -152.64784 -41.97737 -0.18162 50.78573 1.39099 -5.82072 -2.53109 -0.23563 -0.44482 -27.43088 -7.16559 11.33375 119.55106 94.28097 28.34598 -2.05043 -28.33371 6.27488 -18.47757 118.18731 -102.91309 16.77155 -0.47099 46.24593 -1.02398 -0.45477 -19.89637 -6.76006 -3.88152 -2.73176 50.07138 2.76336 4.96705 -25.25536 -6.92986 2.35877 1.82363
0.00069 -2e-05 4e-05 -152.66635 -41.95121 -0.18735 50.7841 1.38344 -5.82756 -2.55039 -0.24535 -0.44511 -27.30447 -7.859 11.65318 119.57651 93.25398 27.19346 -2.15454 -28.30835 6.24933 -18.49579 118.18489 -102.91143 16.77184 -0.46554 46.23789 -1.06996 -0.75313 -19.89516 -6.75205 -3.86223 -2.71207 50.06477 2.74638 4.86455 -25.25409 -6.93065 2.36197 1.83014
0.00098 2e-05 -0.00016 -152.68489 -41.92504 -0.19308 50.78247 1.37589 -5.83441 -2.5697 -0.25509 -0.4454 -27.17732 -8.55588 11.97434 119.602 92.22194 26.03523 -2.25916 -28.28289 6.22382 -18.5141 118.18244 -102.9096 16.77207 -0.46006 46.22984 -1.11603 -1.05207 -19.89393 -6.74403 -3.84292 -2.69235 50.05816 2.72937 4.76185 -25.25281 -6.93144 2.36515 1.83665
0.00126 5e-05 -0.00035 -152.70334 -41.89885 -0.19881 50.7808 1.36836 -5.84119 -2.58897 -0.2648 -0.44569 -27.05291 -9.2401 12.28909 119.62739 91.20829 24.89786 -2.36189 -28.25757 6.1984 -18.53229 118.1801 -102.90736 16.77212 -0.45451 46.22182 -1.1619 -1.34985 -19.89273 -6.73604 -3.82359 -2.67269 50.05155 2.71245 4.65956 -25.25152 -6.93223 2.3684 1.84316
0.00154 8e-05 -0.00055 -152.72195 -41.87271 -0.20456 50.77923 1.36078 -5.84813 -2.60836 -0.27455 -0.44597 -26.9233 -9.94852 12.61611 119.65301 90.15947 23.7206 -2.46825 -28.23216 6.17252 -18.55056 118.17756 -102.90686 16.77291 -0.44924 46.21373 -1.20814 -1.64962 -19.89149 -6.728 -3.80433 -2.65292 50.04492 2.69536 4.55654 -25.25027 -6.93301 2.37151 1.84966
0.00182 0.00011 -0.00075 -152.74042 -41.84652 -0.21028 50.77753 1.35326 -5.85488 -2.62754 -0.28428 -0.44626 -26.79814 -10.63558 12.93233 119.67832 89.14178 22.57861 -2.5714 -28.20653 6.14763 -18.56899 118.17516 -102.90311 16.77234 -0.44348 46.20572 -1.25404 -1.94759 -19.89028 -6.72001 -3.785 -2.63326 50.03833 2.67844 4.45426 -25.24898 -6.93381 2.37475 1.85617
0.0021 0.00014 -0.00095 -152.7587 -41.82026 -0.21598 50.77583 1.34576 -5.86157 -2.64687 -0.29393 -0.44655 -26.67976 -11.29287 13.23336 119.70362 88.16707 21.48551 -2.67008 -28.18183 6.12171 -18.5867 118.17312 -102.90187 16.77277 -0.43805 46.19773 -1.29952 -2.2434 -19.88912 -6.71207 -3.7656 -2.61372 50.03173 2.66168 4.35257 -25.24763 -6.93462 2.37818 1.86272
0.00238 0.00018 -0.00114 -152.77804 -41.79437 -0.22185 50.77462 1.33798 -5.86914 -2.66656 -0.30385 -0.44684 -26.52641 -12.11044 13.61582 119.73012 86.95991 20.12845 -2.79286 -28.15538 6.09497 -18.6058 118.16957 -102.9057 16.77543 -0.43352 46.18943 -1.34739 -2.55176 -19.88773 -6.70381 -3.74663 -2.59344 50.02503 2.64385 4.24653 -25.24659 -6.93532 2.38061 1.86912
0.00267 0.00021 -0.00135 -152.79517 -41.76774 -0.22733 50.77206 1.33092 -5.87448 -2.68472 -0.31334 -0.44712 -26.44427 -12.59694 13.83032 119.75334 86.23362 19.31716 -2.86581 -28.13033 6.07428 -18.62372 118.16884 -102.88637 16.76832 -0.42528 46.18191 -1.39023 -2.83352 -19.88679 -6.69624 -3.72672 -2.57472 50.01863 2.62839 4.15026 -25.24491 -6.93628 2.38505 1.87577
0.003 0.00025 -0.00161 -152.80587 -41.73891 -0.23193 50.76825 1.3248 -5.87637 -2.70412 -0.32054 -0.44739 -26.57937 -12.10683 13.54673 119.77322 86.9205 20.11263 -2.79202 -28.12643 6.03353 -18.62136 118.17818 -102.91168 16.77942 -0.42253 46.17565 -1.41901 -3.04205 -19.88724 -6.69037 -3.70468 -2.56042 50.01239 2.61853 4.07677 -25.24156 -6.93769 2.39574 1.88361
0.00334 0.00028 -0.00188 -152.81449 -41.70945 -0.23607 50.76252 1.31965 -5.87528 -2.7205 -0.32759 -0.44766 -26.7811 -11.2964 13.10068 119.78841 88.07427 21.43778 -2.66989 -28.11974 6.00471 -18.61908 118.18944 -102.8983 16.77498 -0.41374 46.17052 -1.44274 -3.22344 -19.88811 -6.68525 -3.68165 -2.54767 50.00671 2.61127 4.01423 -25.23754 -6.93944 2.40824 1.89156
0.00369 0.00032 -0.00215 -152.8242 -41.6803 -0.24031 50.75623 1.31465 -5.87413 -2.73528 -0.33535 -0.44793 -26.93918 -10.67769 12.75418 119.80252 88.95147 22.44689 -2.5766 -28.10428 5.99558 -18.63035 118.19892 -102.82606 16.74494 -0.39674 46.16523 -1.46905 -3.41806 -19.88872 -6.67985 -3.6587 -2.53406 50.00106 2.60331 3.94879 -25.23379 -6.94117 2.4195 1.89914
0.00401 0.00035 -0.0024 -152.833 -41.65074 -0.24513 50.75645 1.30695 -5.87997 -2.76451 -0.34009 -0.4482 -27.15731 -9.86561 12.3017 119.83163 90.09575 23.76736 -2.45482 -28.13527 5.88437 -18.5921 118.21419 -103.05741 16.84202 -0.42357 46.15775 -1.49442 -3.61084 -19.88966 -6.67404 -3.6371 -2.521 49.99369 2.59305 3.87293 -25.23024 -6.94219 2.43278 1.90819
0.00438 0.0004 -0.0027 -152.84357 -41.6223 -0.2485 50.74207 1.30537 -5.86923 -2.76057 -0.35148 -0.44848 -27.26179 -9.37772 12.0278 119.82658 90.80157 24.57452 -2.38016 -28.06374 5.9837 -18.64718 118.2154 -102.67116 16.6841 -0.36072 46.15596 -1.52021 -3.7985 -19.88994 -6.66947 -3.61274 -2.50732 49.99071 2.58857 3.82346 -25.22605 -6.94493 2.44195 1.91407
0.00483 0.00046 -0.00307 -152.85657 -41.59359 -0.24894 50.69287 1.31815 -5.8247 -2.68557 -0.37794 -0.4488 -27.07041 -9.88882 12.31764 119.74297 90.11892 23.74796 -2.45418 -27.75024 6.70646 -19.0445 118.19771 -100.37842 15.70629 -0.0251 46.16222 -1.55126 -4.00135 -19.88918 -6.66633 -3.57841 -2.48997 49.99383 2.59586 3.82453 -25.22087 -6.95102 2.44228 1.91259
0.00533 0.00054 -0.00348 -152.87204 -41.5667 -0.24779 50.62811 1.3375 -5.76145 -2.57346 -0.41176 -0.44915 -26.75414 -10.73337 12.78641 119.62192 88.99055 22.40145 -2.57603 -27.32391 7.6343 -19.52022 118.16151 -97.50094 14.49166 0.39594 46.17557 -1.58242 -4.19643 -19.8876 -6.66473 -3.54174 -2.47219 50.00248 2.6093 3.85425 -25.21493 -6.95907 2.438 1.90775
0.00584 0.00062 -0.00389 -152.88826 -41.5413 -0.24669 50.56717 1.35534 -5.69947 -2.46554 -0.44434 -0.44949 -26.47477 -11.40775 13.15388 119.50905 88.1078 21.35109 -2.67162 -26.92547 8.43623 -19.90427 118.12105 -95.0342 13.46777 0.75996 46.19051 -1.61155 -4.37937 -19.88583 -6.66366 -3.5079 -2.45571 50.01243 2.62254 3.88525 -25.20893 -6.96711 2.43367 1.90341
0.00622 0.00066 -0.00423 -152.89629 -41.50613 -0.24825 50.51984 1.36692 -5.66814 -2.41161 -0.46785 -0.44979 -26.28884 -12.14647 13.60276 119.43534 87.05981 20.07106 -2.78472 -26.63463 9.36849 -20.52384 118.13619 -91.96985 12.10503 1.19956 46.18511 -1.64859 -4.62479 -19.88642 -6.65751 -3.46686 -2.43484 50.00617 2.62585 3.86113 -25.20464 -6.9715 2.4378 1.90304
0.00687 0.00078 -0.00472 -152.92225 -41.49168 -0.24409 50.44057 1.39316 -5.56828 -2.23575 -0.51224 -0.45019 -25.86863 -12.83845 13.92328 119.2687 86.24375 19.13335 -2.87321 -26.08168 10.08808 -20.67283 118.02857 -89.99189 11.37626 1.50381 46.22381 -1.6696 -4.74201 -19.88193 -6.66217 -3.43993 -2.4227 50.03517 2.65012 3.95238 -25.19658 -6.98386 2.42402 1.89405
0.00822 0.00107 -0.00558 -152.99487 -41.53456 -0.22294 50.27635 1.45774 -5.2867 -1.73842 -0.61038 -0.45087 -24.9097 -13.28756 13.87459 118.87623 86.17747 19.31297 -2.88328 -24.92923 10.08033 -19.49065 117.60837 -91.33113 12.5922 1.39676 46.382 -1.64317 -4.4774 -19.86321 -6.6976 -3.45551 -2.43729 50.15859 2.74092 4.40868 -25.1788 -7.01871 2.35455 1.85814
0.00983 0.00143 -0.00659 -153.08577 -41.59811 -0.19639 50.0807 1.53687 -4.93658 -1.1187 -0.72964 -0.45165 -23.70455 -13.68547 13.68544 118.38752 86.35756 19.84321 -2.86685 -23.49959 9.86678 -17.83415 117.06152 -93.75299 14.42934 1.15325 46.58437 -1.60112 -4.08945 -19.83947 -6.74364 -3.48485 -2.46024 50.3176 2.85094 4.97101 -25.15716 -7.06136 2.26843 1.81434
0.01133 0.00176 -0.00754 -153.16995 -41.65183 -0.17331 49.89972 1.60973 -4.61555 -0.55081 -0.84068 -0.45238 -22.56079 -14.12991 13.543 117.92875 86.42226 20.18185 -2.86211 -22.13251 9.80816 -16.40353 116.55783 -95.5633 15.89242 0.98357 46.7669 -1.56842 -3.77797 -19.81831 -6.78398 -3.50593 -2.47765 50.46142 2.94517 5.44841 -25.13699 -7.09981 2.1949 1.77684
0.01282 0.0021 -0.00845 -153.248 -41.70745 -0.14583 49.71631 1.68161 -4.30125 0.00305 -0.94635 -0.45312 -21.62566 -14.48873 13.481 117.52694 86.48611 20.6421 -2.86092 -21.02615 9.50331 -14.93363 116.11281 -97.85193 17.73313 0.76852 46.94885 -1.52658 -3.38117 -19.79588 -6.82802 -3.53533 -2.50223 50.60139 3.06836 6.07794 -25.11803 -7.14105 2.10054 1.72806
0.01438 0.00242 -0.00949 -153.34249 -41.76399 -0.12634 49.53102 1.75861 -3.95851 0.61387 -1.06788 -0.45386 -20.19948 -15.00794 13.21329 116.98407 86.61604 20.93499 -2.84488 -19.31623 9.65245 -13.42995 115.5176 -99.41648 18.93972 0.61256 47.14222 -1.49963 -3.13142 -19.77489 -6.86692 -3.5508 -2.51408 50.75761 3.13703 6.42046 -25.09562 -7.17835 2.04499 1.70056
0.01609 0.00271 -0.01086 -153.48312 -41.81824 -0.12936 49.34566 1.84882 -3.54035 1.35875 -1.23002 -0.45457 -17.47612 -15.99351 12.43112 116.07769 86.86817 20.71585 -2.79876 -15.97602 11.16766 -11.9648 114.52539 -98.6518 18.22707 0.66897 47.35804 -1.52141 -3.33039 -19.7594 -6.88855 -3.52366 -2.48683 50.95123 3.03899 5.90003 -25.06466 -7.20252 2.10671 1.73735
0.01785 0.00298 -0.01236 -153.63856 -41.87271 -0.14076 49.16009 1.94317 -3.09865 2.155 -1.40694 -0.45528 -14.26919 -17.13809 11.44154 115.03378 87.17958 20.31178 -2.73754 -12.04561 13.13411 -10.47861 113.39078 -97.13375 16.85805 0.78622 47.58351 -1.55798 -3.67915 -19.7455 -6.90472 -3.48223 -2.44684 51.15977 2.88741 5.09478 -25.03037 -7.22252 2.207 1.79523
0.01959 0.00326 -0.0138 -153.78389 -41.92684 -0.14896 48.97636 2.0339 -2.67668 2.92351 -1.57582 -0.456 -11.28367 -18.20165 10.5344 114.04965 87.46715 19.97177 -2.6801 -8.4051 14.8524 -8.99142 112.32781 -96.00915 15.80267 0.86472 47.80334 -1.5853 -3.9514 -19.73069 -6.92371 -3.44782 -2.41393 51.36054 2.76795 4.44949 -24.99758 -7.24465 2.28563 1.84109
0.02136 0.00355 -0.01525 -153.94454 -41.98246 -0.15454 48.78402 2.13251 -2.21387 3.71605 -1.75122 -0.4567 -8.27749 -19.30256 9.67548 113.06795 87.75361 19.72915 -2.63483 -4.65837 16.74613 -7.53263 111.22368 -94.71606 14.7081 0.98512 48.02984 -1.62279 -4.25567 -19.71645 -6.94166 -3.41153 -2.37585 51.56648 2.61673 3.68093 -24.96468 -7.26605 2.38093 1.89683
